<svg xmlns="http://www.w3.org/2000/svg" xmlns:xlink="http://www.w3.org/1999/xlink" viewBox="0,0,256,256" width="240px" height="240px" fill-rule="nonzero"><g fill="#ff0000" fill-rule="nonzero" stroke="none" stroke-width="1" stroke-linecap="butt" stroke-linejoin="miter" stroke-miterlimit="10" stroke-dasharray="" stroke-dashoffset="0" font-family="none" font-weight="none" font-size="none" text-anchor="none" style="mix-blend-mode: normal"><g transform="scale(8.53333,8.53333)"><path d="M15,3c-0.83157,0 -1.54394,0.50672 -1.8457,1.22852l-10.85352,18.71875v0.00195c-0.19588,0.31554 -0.30003,0.67939 -0.30078,1.05078c0,1.10457 0.89543,2 2,2c0.04693,-0.0003 0.09383,-0.00226 0.14063,-0.00586l0.00391,0.00586h10.85547h10.85547l0.00391,-0.00781c0.04677,0.00425 0.09367,0.00686 0.14063,0.00781c1.10457,0 2,-0.89543 2,-2c-0.00039,-0.37206 -0.10455,-0.73663 -0.30078,-1.05273l-0.01562,-0.02734c-0.00065,-0.00065 -0.0013,-0.0013 -0.00195,-0.00195l-10.83594,-18.68945c-0.30177,-0.72179 -1.01413,-1.22852 -1.8457,-1.22852zM13.78711,11.35938h2.42578l-0.20117,6.47266h-2.02344zM15.00391,19.81055c0.822,0 1.31445,0.44227 1.31445,1.19727c0,0.741 -0.49245,1.18164 -1.31445,1.18164c-0.828,0 -1.32422,-0.44064 -1.32422,-1.18164c0,-0.755 0.49522,-1.19727 1.32422,-1.19727z"></path></g></g></svg>