<svg xmlns="http://www.w3.org/2000/svg" xmlns:xlink="http://www.w3.org/1999/xlink" viewBox="0,0,256,256" width="24px" height="24px" fill-rule="nonzero"><g fill="#160794" fill-rule="nonzero" stroke="none" stroke-width="1" stroke-linecap="butt" stroke-linejoin="miter" stroke-miterlimit="10" stroke-dasharray="" stroke-dashoffset="0" font-family="none" font-weight="none" font-size="none" text-anchor="none" style="mix-blend-mode: normal"><g transform="scale(5.12,5.12)"><path d="M32.41,3h-25.41v44h17.29c-0.81,-0.71 -1.5,-1.4 -2.06,-2h-13.23v-40h22v10h10v16.09c0.7,0.27 1.36,0.6 2,0.96v-18.46zM33,13v-6.58l6.59,6.58zM36,50c-7.6,0 -13.6,-8.1 -13.8,-8.4l-0.4,-0.6l0.4,-0.6c0.2,-0.3 6.2,-8.4 13.8,-8.4c7.6,0 13.6,8.1 13.8,8.4l0.4,0.6l-0.4,0.6c-0.2,0.3 -6.2,8.4 -13.8,8.4zM24.3,41c1.5,1.8 6.2,7 11.7,7c5.5,0 10.3,-5.2 11.7,-7c-1.4,-1.8 -6.2,-7 -11.7,-7c-5.5,0 -10.3,5.2 -11.7,7zM36,47c-3.3,0 -6,-2.7 -6,-6c0,-3.3 2.7,-6 6,-6c3.3,0 6,2.7 6,6c0,3.3 -2.7,6 -6,6zM36,37c-2.2,0 -4,1.8 -4,4c0,2.2 1.8,4 4,4c2.2,0 4,-1.8 4,-4c0,-2.2 -1.8,-4 -4,-4zM34,41c0,1.1 0.9,2 2,2c1.1,0 2,-0.9 2,-2c0,-1.1 -0.9,-2 -2,-2c-1.1,0 -2,0.9 -2,2z"></path></g></g></svg>