<svg xmlns="http://www.w3.org/2000/svg" xmlns:xlink="http://www.w3.org/1999/xlink" viewBox="0,0,256,256" width="24px" height="24px" fill-rule="nonzero"><g fill="#160794" fill-rule="nonzero" stroke="none" stroke-width="1" stroke-linecap="butt" stroke-linejoin="miter" stroke-miterlimit="10" stroke-dasharray="" stroke-dashoffset="0" font-family="none" font-weight="none" font-size="none" text-anchor="none" style="mix-blend-mode: normal"><g transform="scale(5.12,5.12)"><path d="M36.90625,-0.0625c-1.04687,0 -2.07812,0.39063 -2.875,1.1875l-0.3125,0.3125c-0.04687,0.03906 -0.08594,0.07813 -0.125,0.125l-0.25,0.28125l-15.5,15.46875c-0.12109,0.12109 -0.20703,0.27344 -0.25,0.4375l-1.625,6c-0.09375,0.35156 0.00781,0.72266 0.26563,0.97656c0.26172,0.25391 0.63672,0.34375 0.98438,0.24219l5.96875,-1.625c0.17578,-0.03906 0.33984,-0.125 0.46875,-0.25l15.46875,-15.46875c0,0 0.13672,-0.13672 0.25,-0.25c0.04688,-0.04687 0.08984,-0.10156 0.125,-0.15625c0.15234,-0.15234 0.3125,-0.3125 0.3125,-0.3125c1.59766,-1.59766 1.59375,-4.1875 0,-5.78125c-0.79687,-0.79687 -1.85937,-1.1875 -2.90625,-1.1875zM34.75,3.25l2.9375,2.9375l-15.3125,15.34375l-2.9375,-2.90625l0.03125,-0.125zM3,9c-1.65234,0 -3,1.34766 -3,3v26c0,1.65234 1.34766,3 3,3h44c1.65234,0 3,-1.34766 3,-3v-26c0,-1.65234 -1.34766,-3 -3,-3h-7.28125l-2,2h9.28125c0.55078,0 1,0.44922 1,1v26c0,0.55078 -0.44922,1 -1,1h-44c-0.55078,0 -1,-0.44922 -1,-1v-26c0,-0.55078 0.44922,-1 1,-1h19.125l2,-2z"></path></g></g></svg>