<svg xmlns="http://www.w3.org/2000/svg" xmlns:xlink="http://www.w3.org/1999/xlink" viewBox="0,0,256,256" width="24px" height="24px" fill-rule="evenodd"><g fill="#160794" fill-rule="evenodd" stroke="none" stroke-width="1" stroke-linecap="butt" stroke-linejoin="miter" stroke-miterlimit="10" stroke-dasharray="" stroke-dashoffset="0" font-family="none" font-weight="none" font-size="none" text-anchor="none" style="mix-blend-mode: normal"><g transform="scale(10.66667,10.66667)"><path d="M4,1.25c-1.519,0 -2.75,1.231 -2.75,2.75v5c0,0.414 0.336,0.75 0.75,0.75c0.414,0 0.75,-0.336 0.75,-0.75v-5c0,-0.69 0.56,-1.25 1.25,-1.25h5c0.414,0 0.75,-0.336 0.75,-0.75c0,-0.414 -0.336,-0.75 -0.75,-0.75zM15,1.25c-0.414,0 -0.75,0.336 -0.75,0.75c0,0.414 0.336,0.75 0.75,0.75h5c0.69,0 1.25,0.56 1.25,1.25v5c0,0.414 0.336,0.75 0.75,0.75c0.414,0 0.75,-0.336 0.75,-0.75v-5c0,-1.519 -1.231,-2.75 -2.75,-2.75zM6.5,4.75c-0.464,0 -0.90833,0.18467 -1.23633,0.51367c-0.329,0.328 -0.51367,0.77233 -0.51367,1.23633v3c0,0.464 0.18467,0.90833 0.51367,1.23633c0.328,0.329 0.77233,0.51367 1.23633,0.51367h3c0.464,0 0.90833,-0.18467 1.23633,-0.51367c0.329,-0.328 0.51367,-0.77233 0.51367,-1.23633v-3c0,-0.464 -0.18467,-0.90833 -0.51367,-1.23633c-0.328,-0.329 -0.77233,-0.51367 -1.23633,-0.51367zM14.5,4.75c-0.464,0 -0.90833,0.18467 -1.23633,0.51367c-0.329,0.328 -0.51367,0.77233 -0.51367,1.23633v3c0,0.464 0.18467,0.90833 0.51367,1.23633c0.328,0.329 0.77233,0.51367 1.23633,0.51367h3c0.464,0 0.90833,-0.18467 1.23633,-0.51367c0.329,-0.328 0.51367,-0.77233 0.51367,-1.23633v-3c0,-0.464 -0.18467,-0.90833 -0.51367,-1.23633c-0.328,-0.329 -0.77233,-0.51367 -1.23633,-0.51367zM6.5,6.25h3c0.066,0 0.13073,0.02527 0.17773,0.07227c0.047,0.047 0.07227,0.11173 0.07227,0.17773v3c0,0.066 -0.02527,0.13073 -0.07227,0.17773c-0.047,0.047 -0.11173,0.07227 -0.17773,0.07227h-3c-0.066,0 -0.13073,-0.02527 -0.17773,-0.07227c-0.047,-0.047 -0.07227,-0.11173 -0.07227,-0.17773v-3c0,-0.066 0.02527,-0.13073 0.07227,-0.17773c0.047,-0.047 0.11173,-0.07227 0.17773,-0.07227zM14.5,6.25h3c0.066,0 0.13073,0.02527 0.17773,0.07227c0.047,0.047 0.07227,0.11173 0.07227,0.17773v3c0,0.066 -0.02527,0.13073 -0.07227,0.17773c-0.047,0.047 -0.11173,0.07227 -0.17773,0.07227h-3c-0.066,0 -0.13073,-0.02527 -0.17773,-0.07227c-0.047,-0.047 -0.07227,-0.11173 -0.07227,-0.17773v-3c0,-0.066 0.02527,-0.13073 0.07227,-0.17773c0.047,-0.047 0.11173,-0.07227 0.17773,-0.07227zM6.5,12.75c-0.464,0 -0.90833,0.18467 -1.23633,0.51367c-0.329,0.328 -0.51367,0.77233 -0.51367,1.23633v3c0,0.464 0.18467,0.90833 0.51367,1.23633c0.328,0.329 0.77233,0.51367 1.23633,0.51367h3c0.464,0 0.90833,-0.18467 1.23633,-0.51367c0.329,-0.328 0.51367,-0.77233 0.51367,-1.23633v-3c0,-0.464 -0.18467,-0.90833 -0.51367,-1.23633c-0.328,-0.329 -0.77233,-0.51367 -1.23633,-0.51367zM14.5,12.75c-0.464,0 -0.90833,0.18467 -1.23633,0.51367c-0.329,0.328 -0.51367,0.77233 -0.51367,1.23633v3c0,0.464 0.18467,0.90833 0.51367,1.23633c0.328,0.329 0.77233,0.51367 1.23633,0.51367h3c0.464,0 0.90833,-0.18467 1.23633,-0.51367c0.329,-0.328 0.51367,-0.77233 0.51367,-1.23633v-3c0,-0.464 -0.18467,-0.90833 -0.51367,-1.23633c-0.328,-0.329 -0.77233,-0.51367 -1.23633,-0.51367zM2,14.25c-0.414,0 -0.75,0.336 -0.75,0.75v5c0,1.519 1.231,2.75 2.75,2.75h5c0.414,0 0.75,-0.336 0.75,-0.75c0,-0.414 -0.336,-0.75 -0.75,-0.75h-5c-0.69,0 -1.25,-0.56 -1.25,-1.25v-5c0,-0.414 -0.336,-0.75 -0.75,-0.75zM6.5,14.25h3c0.066,0 0.13073,0.02527 0.17773,0.07227c0.047,0.047 0.07227,0.11173 0.07227,0.17773v3c0,0.066 -0.02527,0.13073 -0.07227,0.17773c-0.047,0.047 -0.11173,0.07227 -0.17773,0.07227h-3c-0.066,0 -0.13073,-0.02527 -0.17773,-0.07227c-0.047,-0.047 -0.07227,-0.11173 -0.07227,-0.17773v-3c0,-0.066 0.02527,-0.13073 0.07227,-0.17773c0.047,-0.047 0.11173,-0.07227 0.17773,-0.07227zM14.5,14.25h3c0.066,0 0.13073,0.02527 0.17773,0.07227c0.047,0.047 0.07227,0.11173 0.07227,0.17773v3c0,0.066 -0.02527,0.13073 -0.07227,0.17773c-0.047,0.047 -0.11173,0.07227 -0.17773,0.07227h-3c-0.066,0 -0.13073,-0.02527 -0.17773,-0.07227c-0.047,-0.047 -0.07227,-0.11173 -0.07227,-0.17773v-3c0,-0.066 0.02527,-0.13073 0.07227,-0.17773c0.047,-0.047 0.11173,-0.07227 0.17773,-0.07227zM22,14.25c-0.414,0 -0.75,0.336 -0.75,0.75v5c0,0.69 -0.56,1.25 -1.25,1.25h-5c-0.414,0 -0.75,0.336 -0.75,0.75c0,0.414 0.336,0.75 0.75,0.75h5c1.519,0 2.75,-1.231 2.75,-2.75v-5c0,-0.414 -0.336,-0.75 -0.75,-0.75z"></path></g></g></svg>